<svg version="1.1" xmlns="http://www.w3.org/2000/svg" x="0" y="0" viewBox="0 0 269.9 105.2" >
<path d="M78.8 65.5h-3.4V48c0-1.8-.6-3.2-1.7-4.4s-2.6-1.8-4.4-1.8c-2.5 0-4.4.9-5.8 2.8-1.2 1.6-1.8 3.7-1.8 6.2v14.8h-3.4V48c0-1.8-.5-3.2-1.6-4.3-1.2-1.2-2.7-1.9-4.5-1.9-2.5 0-4.5.9-5.8 2.8-1.2 1.6-1.9 3.7-1.9 6.2v14.8h-3.3V39.7h3.1l.2 4c1.7-3.1 4.5-4.7 8.4-4.7 1.9 0 3.6.5 5.1 1.4 1.4 1 2.4 2.2 2.8 3.7 2-3.4 5.1-5.2 9.1-5.2 2.6 0 4.7.8 6.3 2.3 1.6 1.5 2.5 3.5 2.5 5.9l.1 18.4zM109.4 52.6c0 4.3-1.2 7.6-3.5 10.1-2.2 2.3-5 3.5-8.5 3.5-3.6 0-6.4-1.2-8.6-3.5-2.2-2.4-3.4-5.8-3.4-10.1s1.1-7.6 3.4-10.1c2.1-2.4 5-3.6 8.5-3.6s6.3 1.2 8.5 3.5c2.4 2.6 3.6 6 3.6 10.2zm-3.5 0c0-3.5-.8-6.2-2.5-8.2-1.5-1.8-3.5-2.7-6-2.7s-4.5.9-6 2.7c-1.6 1.9-2.5 4.6-2.5 8.2 0 3.5.8 6.1 2.4 8.1 1.5 1.8 3.5 2.7 6.1 2.7 2.5 0 4.5-.9 6-2.7 1.7-1.9 2.5-4.6 2.5-8.1zM136.8 65.5h-3l-.3-3.5c-2.3 2.8-5.1 4.2-8.4 4.2-3.3 0-5.9-1.2-7.8-3.7-1.8-2.5-2.8-5.8-2.8-9.9 0-4.3 1-7.6 2.9-10.1 1.9-2.3 4.4-3.5 7.6-3.5 3.6 0 6.4 1.4 8.4 4.2V27.9h3.4v37.6zm-3.4-7.1V46.8c-.7-1.5-1.7-2.7-3.2-3.6-1.4-.9-3-1.4-4.6-1.4-2.4 0-4.2.9-5.6 2.6-1.4 1.8-2.2 4.6-2.2 8.2 0 3.6.7 6.3 2.2 8.2 1.3 1.7 3.2 2.6 5.6 2.6 1.6 0 3.2-.5 4.6-1.4 1.5-.9 2.5-2.1 3.2-3.6zM165.8 65.5h-3l-.3-3.5c-2.3 2.8-5.1 4.2-8.4 4.2-3.3 0-5.9-1.2-7.8-3.7-1.8-2.5-2.8-5.8-2.8-9.9 0-4.3 1-7.6 2.9-10.1 1.9-2.3 4.4-3.5 7.6-3.5 3.6 0 6.4 1.4 8.4 4.2V27.9h3.4v37.6zm-3.4-7.1V46.8c-.7-1.5-1.7-2.7-3.2-3.6-1.4-.9-3-1.4-4.6-1.4-2.4 0-4.2.9-5.6 2.6-1.4 1.8-2.2 4.6-2.2 8.2 0 3.6.7 6.3 2.2 8.2 1.3 1.7 3.2 2.6 5.6 2.6 1.6 0 3.2-.5 4.6-1.4 1.5-.9 2.5-2.1 3.2-3.6zM197.7 65.4c-1.3.5-2.4.7-3.3.7-2.9 0-4.5-1.3-5-4-.9 1.2-2.3 2.2-4 2.9-1.7.7-3.4 1.1-5.1 1.1-2.5 0-4.4-.7-5.9-2.1-1.4-1.4-2.1-3.1-2.1-5.1 0-5.3 4.4-7.9 13.3-7.9h3.6v-3.5c0-3.8-2-5.7-5.9-5.7-1.7 0-3.1.5-4.4 1.4-1.3.9-2.2 2.1-2.7 3.6l-3.1-1.1c.8-2.1 2-3.7 3.9-4.9 1.8-1.2 3.9-1.8 6.3-1.8 6.2 0 9.3 2.8 9.3 8.5V60c0 2.2.8 3.3 2.4 3.3.7 0 1.4-.2 2.3-.5l.4 2.6zm-8.6-6.3v-5.8h-3.6c-3.7 0-6.4.5-8 1.6-1.3.9-2 2.2-2 4 0 1.3.5 2.4 1.4 3.3.9.9 2.2 1.4 3.9 1.4 3.4 0 6.2-1.5 8.3-4.5zM224.3 52.6c0 4.2-.9 7.5-2.8 9.9-1.9 2.5-4.5 3.7-7.8 3.7s-6.1-1.4-8.4-4.2l-.3 3.5h-3V27.9h3.3v15.3c2.3-2.8 5.1-4.2 8.4-4.2 3.3 0 5.9 1.2 7.8 3.7 1.9 2.4 2.8 5.7 2.8 9.9zm-3.5 0c0-3.6-.7-6.3-2.2-8.2-1.3-1.7-3.2-2.6-5.6-2.6-1.7 0-3.2.5-4.6 1.4-1.4.9-2.5 2.1-3.2 3.6v11.6c.7 1.5 1.7 2.7 3.2 3.6 1.4.9 3 1.4 4.6 1.4 2.4 0 4.2-.9 5.6-2.6 1.5-1.9 2.2-4.6 2.2-8.2zM241.9 65.2c-1.3.4-2.5.7-3.7.7-4.8 0-7.2-2.6-7.2-7.8V27.9h3.3v30.2c0 3.3 1.4 5 4.2 5 .9 0 1.9-.2 2.9-.6l.5 2.7zM266 52.4h-19.4v.6c0 3.3.8 5.9 2.5 7.8 1.5 1.7 3.6 2.6 6.1 2.6 1.9 0 3.5-.5 5-1.6 1.1-.9 1.9-1.9 2.4-3l3.1.7c-.6 1.7-1.7 3.2-3.4 4.5-2 1.5-4.4 2.2-7.1 2.2-3.7 0-6.6-1.2-8.8-3.6s-3.3-5.7-3.3-10c0-4.1 1.1-7.4 3.2-9.9s5-3.7 8.6-3.7c3.3 0 6 1.1 8 3.2s3 5.1 3 8.9l.1 1.3zm-3.2-2.3c-.1-2.5-.8-4.6-2.1-6.1-1.4-1.6-3.3-2.4-5.8-2.4-2.3 0-4.2.8-5.7 2.4-1.5 1.6-2.3 3.6-2.5 6.1h16.1z"/><path class="st0" d="M10.1 11.1c0-4.4 3.3-7.8 7-7.3l75.4 10.7c4.5.7 5.9 7.5 5.9 10.8l.3 4.8v-6.7c0-3.5-1.1-10.1-5.9-10.9L16.4 1c-1.8-.3-2.9.2-2.9.2-2.8 1.2-6.4 2.7-6.4 2.7C4.6 5 2.6 7.3 2.6 10.2v83.3c0 3 2.1 5.3 4.5 6.3 0 0 3.6 1.5 6.4 2.7 0 0 1.1.5 2.9.2l76.3-11.5c4.8-.8 5.9-7.4 5.9-10.9v-6.7l-.3 4.8c0 3.3-1.4 10.2-5.9 10.8L17.1 99.9c-3.7.5-7-2.9-7-7.3V11.1z"/></svg>